<?xml version="1.0" standalone="no"?>
<!DOCTYPE svg PUBLIC "-//W3C//DTD SVG 20010904//EN"
 "http://www.w3.org/TR/2001/REC-SVG-20010904/DTD/svg10.dtd">
<svg version="1.0" xmlns="http://www.w3.org/2000/svg"
 width="512.000000pt" height="512.000000pt" viewBox="0 0 512.000000 512.000000"
 preserveAspectRatio="xMidYMid meet">

<g transform="translate(0.000000,512.000000) scale(0.100000,-0.100000)"
fill="#000000" stroke="none">
<path d="M100 2560 l0 -1640 2465 0 2465 0 0 1640 0 1640 -2465 0 -2465 0 0
-1640z m3492 666 c562 -359 1023 -659 1023 -666 0 -18 -2044 -1323 -2061
-1316 -36 14 -2054 1310 -2052 1317 3 10 2048 1319 2060 1319 3 0 467 -294
1030 -654z"/>
<path d="M2400 3366 c-236 -50 -449 -206 -555 -408 l-36 -68 33 8 c18 4 134 7
258 7 190 -1 243 -4 342 -23 314 -59 602 -185 845 -368 46 -35 87 -64 90 -64
3 0 3 62 0 138 -3 103 -10 154 -27 207 -50 157 -149 305 -272 404 -72 59 -215
132 -303 156 -82 23 -291 28 -375 11z m436 -509 c1 -7 -6 -13 -16 -13 -10 0
-16 7 -15 16 2 8 4 19 4 25 1 12 24 -11 27 -28z"/>
<path d="M1968 2879 c19 -20 15 -29 -13 -29 -20 0 -25 -5 -24 -22 1 -16 3 -18
6 -6 2 9 14 18 26 20 27 4 34 33 10 42 -14 6 -16 5 -5 -5z"/>
<path d="M2032 2853 c1 -37 1 -37 5 -6 3 19 11 34 21 36 12 3 10 5 -5 6 -20 1
-23 -3 -21 -36z"/>
<path d="M2130 2870 c0 -15 6 -20 28 -19 23 2 24 2 5 6 -32 6 -29 21 5 26 25
4 25 4 -5 6 -27 1 -33 -3 -33 -19z"/>
<path d="M2081 2858 c0 -14 -7 -29 -13 -31 -10 -4 -10 -6 0 -6 16 -1 25 22 19
46 -3 12 -5 9 -6 -9z"/>
<path d="M2231 2848 c0 -28 2 -30 9 -13 12 28 12 45 0 45 -5 0 -10 -15 -9 -32z"/>
<path d="M2275 2860 c-4 -11 -11 -18 -16 -15 -5 4 -9 -4 -9 -16 0 -21 1 -21
25 5 26 28 32 46 16 46 -5 0 -13 -9 -16 -20z"/>
<path d="M1837 2864 c-12 -12 -8 -41 8 -54 20 -17 47 5 43 34 -3 21 -37 34
-51 20z m41 -26 c-2 -13 -10 -23 -18 -23 -8 0 -16 10 -18 23 -3 17 2 22 18 22
16 0 21 -5 18 -22z"/>
<path d="M2396 2834 c-8 -31 4 -48 30 -41 16 4 15 5 -3 6 -27 1 -30 23 -7 45
13 14 13 16 1 16 -8 0 -18 -12 -21 -26z"/>
<path d="M2138 2823 c6 -2 18 -2 25 0 6 3 1 5 -13 5 -14 0 -19 -2 -12 -5z"/>
<path d="M2560 2823 c8 -2 21 -7 29 -9 11 -3 11 -7 1 -19 -11 -13 -10 -14 4
-9 34 13 10 45 -32 43 -14 0 -14 -2 -2 -6z"/>
<path d="M2540 2795 c0 -9 6 -12 15 -9 8 4 15 7 15 9 0 2 -7 5 -15 9 -9 3 -15
0 -15 -9z"/>
<path d="M2650 2804 c0 -3 12 -9 26 -14 21 -8 24 -13 14 -25 -6 -8 -10 -22 -7
-32 4 -14 5 -14 6 4 0 12 6 25 11 28 8 5 8 11 0 20 -10 12 -50 27 -50 19z"/>
<path d="M1851 2777 c-82 -12 -85 -13 -93 -42 -5 -16 -11 -77 -15 -135 -23
-405 258 -765 661 -846 96 -20 278 -14 371 11 90 24 232 97 303 155 35 29 88
82 118 118 56 68 144 229 144 263 0 23 -129 128 -255 206 -188 117 -397 201
-625 248 -104 22 -158 27 -325 30 -123 2 -232 -1 -284 -8z m47 -57 c14 0 14
-2 3 -9 -7 -5 -11 -13 -7 -19 3 -5 -5 -9 -19 -9 -14 0 -22 4 -19 9 4 6 0 14
-7 19 -11 7 -10 9 4 9 9 0 17 6 18 13 0 10 2 10 6 0 2 -7 12 -13 21 -13z m906
-154 c-6 -16 -34 -17 -34 -1 0 17 10 24 25 18 8 -2 12 -10 9 -17z m-551 -77
c-6 -23 -7 -23 -28 -3 -13 13 -14 19 -4 25 19 12 37 0 32 -22z m330 -38 c-5
-21 -40 -22 -40 -1 0 8 5 18 10 22 17 10 35 -2 30 -21z m-528 -11 c-3 -5 -10
-10 -16 -10 -5 0 -9 5 -9 10 0 6 7 10 16 10 8 0 12 -4 9 -10z m440 -49 c7 -12
-12 -24 -25 -16 -11 7 -4 25 10 25 5 0 11 -4 15 -9z m178 -28 c-7 -17 -30 -17
-35 -1 -3 7 0 18 6 24 13 14 36 -5 29 -23z m-706 -13 c2 -15 -1 -18 -15 -13
-25 9 -32 24 -19 39 14 15 29 3 34 -26z m563 -40 c0 -5 -4 -10 -10 -10 -5 0
-10 5 -10 10 0 6 5 10 10 10 6 0 10 -4 10 -10z m-647 -26 c-3 -8 -11 -14 -18
-14 -17 0 -27 28 -12 33 20 7 36 -4 30 -19z m1244 -24 c2 -15 -1 -18 -15 -13
-25 9 -32 24 -19 39 14 15 29 3 34 -26z m-974 4 c-3 -8 -11 -14 -18 -14 -17 0
-27 28 -12 33 20 7 36 -4 30 -19z m1092 -11 c-21 -15 -30 -10 -22 11 4 10 13
13 23 9 15 -6 15 -7 -1 -20z m-678 -53 c12 0 13 -3 4 -13 -6 -8 -8 -17 -5 -20
4 -3 -3 -5 -15 -4 -11 1 -21 7 -21 13 0 7 -6 15 -12 17 -8 3 -6 6 5 6 9 1 17
7 18 14 0 10 2 10 6 0 2 -7 12 -13 20 -13z m606 -6 c-3 -8 -11 -14 -18 -14
-17 0 -27 28 -12 33 20 7 36 -4 30 -19z m-1051 -29 c0 -5 -5 -11 -11 -13 -6
-2 -11 4 -11 13 0 9 5 15 11 13 6 -2 11 -8 11 -13z m1021 -56 c-6 -23 -7 -23
-28 -3 -13 13 -14 19 -4 25 19 12 37 0 32 -22z m-890 -19 c-2 -9 -13 -17 -24
-17 -11 -1 -17 2 -14 7 3 5 0 12 -5 15 -7 5 -5 11 6 20 21 15 43 0 37 -25z
m490 4 c-7 -18 -33 -18 -33 -1 0 19 10 27 25 20 8 -2 11 -11 8 -19z m152 7 c7
-12 -12 -24 -25 -16 -11 7 -4 25 10 25 5 0 11 -4 15 -9z m89 0 c3 -5 0 -14 -8
-20 -10 -9 -15 -8 -19 3 -9 22 15 37 27 17z m89 -27 c-7 -18 -33 -18 -33 -1 0
19 10 27 25 20 8 -2 11 -11 8 -19z m-80 -71 c-3 -7 -10 -11 -16 -10 -19 3 -27
20 -16 34 13 15 39 -5 32 -24z m-180 -2 c-5 -21 -40 -22 -40 -1 0 8 5 18 10
22 17 10 35 -2 30 -21z m180 -77 c-3 -8 -11 -14 -18 -14 -17 0 -27 28 -12 33
20 7 36 -4 30 -19z"/>
<path d="M2640 2781 c0 -5 -3 -18 -6 -28 -4 -11 -3 -14 3 -7 4 6 13 13 20 15
8 3 7 8 -3 17 -8 7 -14 8 -14 3z"/>
<path d="M2750 2755 c-19 -23 -8 -50 20 -50 19 0 26 6 28 24 5 35 -26 53 -48
26z m38 -23 c3 -17 -2 -22 -17 -22 -14 0 -21 6 -21 18 0 38 33 41 38 4z"/>
<path d="M2840 2715 c-17 -20 -9 -46 17 -56 15 -5 23 -3 27 7 4 11 0 13 -20 8
-23 -6 -25 -4 -22 17 2 17 9 24 25 23 12 0 20 3 17 8 -8 13 -30 9 -44 -7z"/>
<path d="M2963 2678 c15 -5 27 -14 27 -19 0 -13 -37 -11 -46 2 -7 12 -24 -6
-24 -26 0 -5 4 -4 8 3 10 14 42 6 42 -11 0 -6 7 -1 17 12 15 23 15 25 -2 37
-10 8 -26 14 -34 13 -9 0 -4 -5 12 -11z"/>
<path d="M3016 2611 c-15 -27 -14 -29 12 -40 24 -10 25 -10 9 3 -13 10 -17 21
-12 35 7 24 17 26 48 10 21 -10 21 -10 3 5 -29 23 -44 20 -60 -13z"/>
<path d="M3115 2579 c-4 -5 1 -19 11 -30 24 -26 10 -37 -18 -13 l-23 18 22
-24 c18 -19 25 -22 35 -12 9 9 7 16 -7 32 -16 18 -17 23 -5 30 9 6 10 10 3 10
-6 0 -15 -5 -18 -11z"/>
<path d="M3197 2524 c-3 -4 1 -17 9 -30 9 -13 12 -29 8 -36 -6 -11 -4 -11 7 0
11 10 11 16 1 33 -17 27 -5 40 14 15 8 -11 14 -15 14 -10 0 23 -38 43 -53 28z"/>
<path d="M3180 2481 c0 -6 4 -13 10 -16 6 -3 7 1 4 9 -7 18 -14 21 -14 7z"/>
<path d="M3272 2458 c-7 -7 -12 -19 -11 -27 0 -10 4 -7 9 7 11 26 35 29 49 5
6 -10 11 -13 11 -7 0 13 -21 34 -35 34 -6 0 -16 -5 -23 -12z"/>
<path d="M3290 2410 c-23 -7 -23 -8 -3 -9 12 -1 25 4 28 9 3 6 5 10 3 9 -2 -1
-14 -5 -28 -9z"/>
</g>
</svg>
