<?xml version="1.0" standalone="no"?>
<!DOCTYPE svg PUBLIC "-//W3C//DTD SVG 20010904//EN"
 "http://www.w3.org/TR/2001/REC-SVG-20010904/DTD/svg10.dtd">
<svg version="1.0" xmlns="http://www.w3.org/2000/svg"
 width="512.000000pt" height="512.000000pt" viewBox="0 0 512.000000 512.000000"
 preserveAspectRatio="xMidYMid meet">

<g transform="translate(0.000000,512.000000) scale(0.100000,-0.100000)"
fill="#000000" stroke="none">
<path d="M52 4226 c-17 -8 -37 -27 -42 -41 -6 -17 -10 -333 -10 -860 l0 -834
24 -28 24 -28 2536 -3 2536 -2 0 130 0 130 -1370 0 -1370 0 0 130 0 130 1370
0 1370 0 0 125 0 125 -1370 0 -1371 0 3 133 3 132 1367 3 1368 2 0 125 0 125
-1370 0 -1370 0 0 130 0 130 1371 0 1371 0 -4 100 c-3 91 -6 103 -28 124 l-25
24 -2490 6 c-2176 5 -2494 4 -2523 -8z m207 -216 c8 -24 16 -30 40 -30 40 0
47 -15 16 -36 -22 -14 -24 -21 -18 -57 6 -42 1 -44 -39 -9 -16 13 -20 13 -35
0 -41 -35 -46 -33 -40 9 6 36 4 43 -18 57 -31 21 -24 36 16 36 24 0 32 6 40
30 6 17 15 30 19 30 4 0 13 -13 19 -30z m481 -17 c0 -8 13 -13 35 -13 41 0 45
-14 10 -41 -21 -17 -23 -24 -14 -46 13 -34 4 -41 -29 -21 -25 15 -28 15 -53
-3 -32 -23 -43 -12 -29 26 9 23 7 30 -15 47 -34 27 -31 38 9 38 29 0 36 4 46
33 11 31 12 31 26 13 7 -11 14 -26 14 -33z m469 17 c8 -24 16 -30 40 -30 41 0
46 -14 15 -38 -25 -17 -26 -22 -16 -50 13 -39 4 -46 -28 -22 -24 18 -25 18
-59 -2 l-33 -21 7 41 c6 36 4 42 -19 57 -32 21 -25 35 19 35 29 0 34 4 40 30
4 17 10 30 15 30 4 0 13 -13 19 -30z m476 0 c6 -26 11 -30 41 -30 39 0 45 -18
13 -38 -18 -11 -20 -19 -14 -54 l7 -41 -33 21 c-34 20 -35 20 -59 2 -32 -24
-41 -17 -28 22 10 28 9 33 -16 50 -31 23 -26 38 14 38 22 0 30 6 39 30 5 17
14 30 20 30 5 0 12 -13 16 -30z m476 0 c9 -25 16 -30 45 -30 40 0 43 -11 9
-38 -22 -17 -24 -24 -15 -47 14 -38 3 -48 -29 -26 -27 19 -27 19 -60 -1 l-33
-21 7 41 c6 35 4 43 -14 54 -32 20 -26 38 13 38 30 0 35 4 41 30 4 17 11 30
16 30 6 0 15 -13 20 -30z m-1666 -150 c6 -26 11 -30 40 -30 44 0 51 -14 19
-35 -23 -15 -25 -21 -19 -57 l7 -41 -33 21 c-34 20 -35 20 -59 2 -32 -24 -41
-17 -28 22 10 28 9 33 -16 50 -31 24 -26 38 15 38 18 0 32 6 34 15 3 8 7 22
10 30 7 25 23 17 30 -15z m476 0 c9 -25 16 -30 45 -30 40 0 43 -11 9 -38 -22
-17 -24 -24 -15 -47 15 -38 3 -48 -30 -25 -28 20 -28 20 -53 0 -35 -28 -38
-26 -31 19 5 33 3 41 -15 53 -32 19 -26 38 12 38 27 0 35 5 44 30 6 17 14 30
18 30 3 0 11 -13 16 -30z m478 0 c8 -24 16 -30 40 -30 40 0 47 -15 16 -36 -22
-14 -24 -21 -18 -57 6 -42 1 -44 -39 -9 -16 13 -20 13 -35 0 -41 -35 -46 -33
-40 9 6 36 4 43 -18 57 -31 21 -24 36 16 36 24 0 32 6 40 30 6 17 15 30 19 30
4 0 13 -13 19 -30z m481 -17 c0 -8 13 -13 35 -13 41 0 45 -14 10 -41 -20 -17
-23 -24 -15 -45 14 -37 3 -47 -27 -24 l-25 20 -28 -20 c-33 -23 -45 -13 -30
25 9 23 7 30 -15 47 -34 27 -31 38 9 38 29 0 36 4 46 33 11 31 12 31 26 13 7
-11 14 -26 14 -33z m-1671 -143 c8 -26 15 -30 45 -30 43 0 44 -6 11 -32 -22
-17 -25 -25 -19 -54 7 -38 3 -41 -31 -18 -23 15 -27 15 -50 0 -34 -23 -38 -20
-31 18 6 29 3 37 -19 54 -33 26 -32 32 11 32 30 0 37 4 45 30 6 17 15 30 19
30 4 0 13 -13 19 -30z m476 0 c6 -26 11 -30 41 -30 40 0 44 -13 10 -35 -22
-15 -23 -20 -14 -46 14 -39 6 -45 -31 -23 -28 17 -31 17 -49 1 -38 -35 -47
-20 -25 39 2 6 -7 19 -21 28 -36 23 -32 36 8 36 29 0 36 5 45 30 5 17 14 30
20 30 5 0 12 -13 16 -30z m476 0 c9 -25 16 -30 45 -30 41 0 42 -7 9 -35 -22
-18 -24 -24 -16 -52 11 -37 3 -41 -34 -17 -22 14 -26 14 -47 0 -33 -23 -40
-20 -33 17 5 25 2 37 -14 51 -29 26 -26 36 10 36 24 0 32 6 40 30 6 17 15 30
20 30 6 0 15 -13 20 -30z m478 0 c8 -24 16 -30 40 -30 36 0 39 -10 10 -36 -16
-14 -19 -26 -14 -51 7 -37 0 -40 -33 -17 -20 14 -25 14 -52 -2 -36 -22 -44
-16 -30 22 10 26 9 31 -14 49 -34 28 -33 35 8 35 29 0 36 5 45 30 5 17 14 30
20 30 5 0 14 -13 20 -30z m472 0 c9 -25 16 -30 45 -30 41 0 42 -7 8 -35 -23
-18 -24 -23 -14 -49 14 -38 6 -44 -30 -23 -28 17 -31 17 -55 1 -32 -21 -40
-13 -27 25 9 26 8 31 -14 46 -34 22 -30 35 10 35 30 0 35 4 41 30 4 17 11 30
16 30 6 0 15 -13 20 -30z m-1662 -150 c8 -24 16 -30 40 -30 36 0 39 -10 10
-36 -16 -14 -19 -26 -14 -51 7 -37 0 -40 -33 -17 -21 14 -25 14 -47 0 -37 -24
-45 -20 -34 17 8 28 6 34 -16 52 -33 28 -32 35 9 35 29 0 36 5 45 30 5 17 14
30 20 30 5 0 14 -13 20 -30z m472 0 c9 -25 16 -30 45 -30 41 0 43 -12 8 -37
-22 -17 -24 -22 -14 -47 14 -38 6 -44 -30 -23 -28 17 -31 17 -55 1 -32 -21
-40 -13 -27 25 9 26 8 31 -14 46 -34 22 -30 35 10 35 30 0 35 4 41 30 4 17 11
30 16 30 6 0 15 -13 20 -30z m478 0 c8 -26 15 -30 45 -30 43 0 44 -6 11 -32
-22 -17 -25 -25 -19 -54 7 -38 -1 -42 -34 -18 -21 14 -25 14 -47 0 -34 -23
-38 -20 -31 19 6 29 3 36 -19 51 -35 23 -31 34 11 34 30 0 37 4 45 30 6 17 15
30 19 30 4 0 13 -13 19 -30z m476 0 c6 -26 11 -30 41 -30 40 0 44 -13 10 -36
-21 -13 -23 -19 -15 -40 17 -47 3 -59 -33 -27 -16 14 -22 15 -36 5 -45 -32
-58 -28 -42 14 10 25 8 30 -14 47 -35 25 -33 37 8 37 30 0 35 4 41 30 4 17 13
30 20 30 7 0 16 -13 20 -30z m-1665 -155 c10 -31 15 -35 48 -35 l37 -1 -28
-24 c-24 -21 -27 -30 -21 -60 7 -37 -5 -46 -26 -20 -7 8 -20 15 -30 15 -10 0
-23 -7 -30 -15 -21 -26 -33 -17 -26 20 6 30 3 39 -21 60 l-28 24 37 1 c33 0
38 4 48 35 6 19 15 35 20 35 5 0 14 -16 20 -35z m474 0 c13 -29 20 -35 45 -35
37 0 40 -12 6 -34 -21 -14 -23 -19 -13 -46 13 -40 6 -46 -27 -24 -25 17 -28
17 -56 0 -37 -22 -41 -19 -30 22 8 27 6 34 -15 51 -32 25 -30 31 7 31 25 0 32
6 45 35 8 19 16 35 19 35 3 0 11 -16 19 -35z m525 -35 l36 -1 -28 -25 c-25
-22 -28 -28 -19 -53 13 -38 6 -44 -29 -24 -25 15 -29 15 -53 0 -36 -24 -39
-22 -31 20 6 32 3 39 -22 59 l-28 23 37 1 c34 0 39 4 54 38 l17 37 15 -37 c13
-34 19 -38 51 -38z m427 35 c13 -31 19 -35 52 -35 l37 -1 -28 -23 c-25 -20
-28 -27 -22 -59 8 -42 5 -44 -31 -20 -24 15 -28 15 -53 0 -34 -20 -43 -14 -30
21 9 23 7 30 -15 49 -34 29 -33 33 8 33 30 0 36 4 46 35 6 19 14 35 16 35 3 0
12 -16 20 -35z m479 -5 c6 -26 11 -30 41 -30 41 0 42 -4 8 -33 -22 -20 -24
-25 -14 -51 14 -37 8 -42 -29 -20 -28 17 -31 17 -56 0 -33 -22 -40 -16 -27 24
10 27 8 32 -13 46 -33 22 -31 34 5 34 25 0 32 6 45 36 16 40 30 38 40 -6z
m-1669 -145 c13 -31 19 -35 52 -35 l37 -1 -28 -23 c-25 -20 -28 -27 -22 -59 8
-42 5 -44 -31 -20 -24 15 -28 15 -53 0 -34 -20 -43 -14 -30 21 9 23 7 30 -15
49 -34 29 -33 33 8 33 30 0 36 4 46 35 6 19 14 35 16 35 3 0 12 -16 20 -35z
m479 -5 c6 -26 11 -30 41 -30 41 0 42 -4 8 -33 -22 -20 -24 -25 -14 -51 14
-37 8 -42 -29 -20 -28 17 -31 17 -56 0 -33 -22 -40 -16 -27 24 10 27 8 32 -13
46 -34 22 -31 34 6 34 25 0 32 6 45 35 17 40 29 39 39 -5z m471 5 c13 -31 19
-35 52 -35 l37 -1 -28 -24 c-24 -21 -27 -30 -21 -60 7 -37 -5 -46 -26 -20 -7
8 -20 15 -30 15 -10 0 -23 -7 -30 -15 -21 -26 -33 -17 -26 20 6 30 3 39 -21
60 l-28 24 37 1 c33 0 38 4 48 35 6 19 14 35 16 35 3 0 12 -16 20 -35z m478 0
c13 -29 20 -35 45 -35 37 0 40 -12 6 -34 -21 -14 -23 -19 -13 -46 13 -40 6
-46 -27 -24 -25 17 -28 17 -56 0 -37 -22 -45 -16 -31 23 10 27 8 33 -14 50
-32 25 -30 31 11 31 19 0 35 4 35 9 0 15 19 61 25 61 2 0 11 -16 19 -35z
m-1665 -155 c8 -24 16 -30 40 -30 40 0 47 -15 16 -36 -22 -14 -24 -21 -18 -57
6 -42 1 -44 -39 -9 -16 13 -20 13 -35 0 -41 -35 -46 -33 -40 9 6 36 4 43 -18
57 -31 21 -24 36 16 36 24 0 32 6 40 30 6 17 15 30 19 30 4 0 13 -13 19 -30z
m481 -17 c0 -8 13 -13 35 -13 41 0 44 -11 12 -37 -19 -15 -22 -23 -16 -48 11
-38 4 -43 -29 -23 -25 15 -28 15 -53 -3 -32 -23 -43 -12 -29 26 9 23 7 30 -15
47 -34 27 -31 38 9 38 29 0 36 4 46 33 11 31 12 31 26 13 7 -11 14 -26 14 -33z
m469 17 c8 -24 16 -30 40 -30 41 0 46 -14 15 -38 -24 -17 -26 -22 -16 -50 14
-40 6 -46 -30 -21 -26 19 -31 19 -46 7 -39 -34 -45 -33 -37 10 6 36 4 42 -19
57 -32 21 -25 35 19 35 29 0 34 4 40 30 4 17 10 30 15 30 4 0 13 -13 19 -30z
m476 0 c6 -26 11 -30 41 -30 39 0 45 -18 13 -38 -18 -11 -20 -19 -14 -54 l7
-41 -33 21 c-34 20 -35 20 -59 2 -32 -24 -41 -17 -28 22 10 28 9 33 -15 50
-36 26 -34 38 7 38 29 0 36 5 45 30 5 17 14 30 20 30 5 0 12 -13 16 -30z m476
0 c9 -25 16 -30 45 -30 40 0 43 -11 9 -38 -22 -17 -24 -24 -15 -47 15 -38 3
-48 -29 -26 -25 18 -30 19 -47 6 -33 -25 -46 -19 -38 19 5 28 2 37 -15 48 -32
20 -26 38 13 38 30 0 35 4 41 30 4 17 11 30 16 30 6 0 15 -13 20 -30z m-1666
-150 c6 -26 11 -30 40 -30 44 0 51 -14 19 -35 -23 -15 -25 -21 -19 -57 l7 -41
-33 21 c-34 20 -35 20 -59 2 -32 -24 -41 -17 -28 22 10 28 9 33 -16 50 -31 23
-26 38 14 38 22 0 30 6 39 30 5 17 14 30 20 30 5 0 12 -13 16 -30z m476 0 c9
-25 16 -30 45 -30 40 0 43 -11 9 -38 -22 -17 -24 -24 -15 -47 15 -38 3 -48
-29 -26 -25 18 -30 19 -47 6 -32 -24 -43 -18 -37 19 4 28 1 37 -16 48 -32 19
-26 38 12 38 27 0 35 5 44 30 6 17 14 30 18 30 3 0 11 -13 16 -30z m478 0 c8
-24 16 -30 40 -30 40 0 47 -15 16 -36 -22 -14 -24 -21 -18 -57 6 -42 1 -44
-39 -9 -16 13 -20 13 -35 0 -41 -35 -46 -33 -40 9 6 36 4 43 -18 57 -31 21
-24 36 16 36 24 0 32 6 40 30 6 17 15 30 19 30 4 0 13 -13 19 -30z m481 -17
c0 -8 13 -13 35 -13 41 0 44 -11 10 -38 -22 -17 -24 -24 -15 -47 14 -38 3 -49
-27 -25 l-25 20 -28 -20 c-33 -23 -45 -13 -30 25 9 23 7 30 -15 47 -34 27 -31
38 9 38 29 0 36 4 46 33 11 31 12 31 26 13 7 -11 14 -26 14 -33z m-1671 -143
c8 -26 15 -30 45 -30 43 0 44 -6 11 -32 -22 -17 -25 -25 -19 -54 7 -38 3 -41
-31 -18 -23 15 -27 15 -50 0 -34 -23 -38 -20 -31 18 6 29 3 37 -19 54 -33 26
-32 32 11 32 30 0 37 4 45 30 6 17 15 30 19 30 4 0 13 -13 19 -30z m476 0 c6
-26 11 -30 41 -30 40 0 44 -13 10 -35 -22 -15 -23 -20 -14 -46 14 -39 6 -45
-31 -23 -28 17 -31 17 -49 1 -38 -35 -47 -20 -25 40 3 6 -7 19 -21 28 -35 23
-33 35 7 35 27 0 35 5 44 30 6 17 16 30 21 30 6 0 13 -13 17 -30z m476 0 c9
-25 16 -30 45 -30 41 0 42 -7 9 -35 -22 -18 -24 -24 -16 -52 11 -37 3 -41 -34
-17 -22 14 -26 14 -47 0 -33 -23 -40 -20 -33 17 5 25 2 37 -14 51 -29 26 -26
36 10 36 24 0 32 6 40 30 6 17 15 30 20 30 6 0 15 -13 20 -30z m478 0 c8 -24
16 -30 40 -30 36 0 40 -13 10 -34 -18 -12 -20 -21 -15 -50 8 -40 1 -44 -32
-20 -20 14 -25 14 -52 -2 -36 -22 -44 -16 -30 22 10 26 9 31 -14 49 -34 28
-33 35 8 35 29 0 36 5 45 30 5 17 14 30 20 30 5 0 14 -13 20 -30z m472 0 c9
-25 16 -30 45 -30 41 0 43 -12 8 -35 -14 -9 -24 -22 -21 -28 22 -60 13 -75
-25 -40 -18 16 -21 16 -49 -1 -37 -22 -45 -16 -31 23 9 26 8 31 -14 46 -34 22
-30 35 10 35 30 0 35 4 41 30 4 17 11 30 16 30 6 0 15 -13 20 -30z"/>
<path d="M0 2045 l0 -125 2560 0 2560 0 0 125 0 125 -2560 0 -2560 0 0 -125z"/>
<path d="M0 1525 l0 -125 2560 0 2560 0 0 125 0 125 -2560 0 -2560 0 0 -125z"/>
<path d="M2 1040 c3 -88 6 -102 28 -125 l23 -25 2507 0 2507 0 23 25 c22 23
25 37 28 125 l4 100 -2562 0 -2562 0 4 -100z"/>
</g>
</svg>
